<?xml version="1.0" standalone="no"?>
<!DOCTYPE svg PUBLIC "-//W3C//DTD SVG 20010904//EN"
 "http://www.w3.org/TR/2001/REC-SVG-20010904/DTD/svg10.dtd">
<svg version="1.0" xmlns="http://www.w3.org/2000/svg"
 width="512.000000pt" height="512.000000pt" viewBox="0 0 512.000000 512.000000"
 preserveAspectRatio="xMidYMid meet">
<metadata>
Created by potrace 1.11, written by Peter Selinger 2001-2013
</metadata>
<g transform="translate(0.000000,512.000000) scale(0.100000,-0.100000)"
fill="#000000" stroke="none">
<path d="M620 3325 l0 -635 987 2 987 3 0 630 0 630 -987 3 -987 2 0 -635z"/>
<path d="M2749 3650 c-5 -19 -3 -944 2 -951 3 -5 262 -8 650 -7 l644 3 0 478
c0 314 -3 477 -10 478 -32 5 -1285 4 -1286 -1z"/>
<path d="M1467 2533 c-2 -5 -3 -312 -3 -683 l1 -675 564 0 565 0 0 680 0 680
-561 3 c-309 1 -564 -1 -566 -5z"/>
<path d="M2745 2093 l0 -448 878 0 877 -1 0 448 0 448 -878 0 -877 0 0 -447z"/>
</g>
</svg>
